<svg width="16" height="16" viewBox="0 0 16 16" fill="none" xmlns="http://www.w3.org/2000/svg">
<path d="M9.22269 5.94025L5.35726 4.94411L3.90748 6.34758L2.95799 6.10777L6.5142 2.66192L7.46172 2.90497L6.06877 4.2545L9.93776 5.24972L9.22269 5.94025Z" fill="url(#paint0_linear_3046_15571)"/>
<path d="M6.31763 8.47427L5.215 9.058L3.40061 7.72095L2.60268 7.54603L3.83908 12.0492L4.73896 12.2683L3.74586 8.71048L4.83363 9.47131L5.69179 12.5063L6.61387 12.7333L5.77685 9.70913L6.119 9.52876L6.60402 9.39557L7.5922 12.9738L8.51453 13.2016L7.28814 8.73495L6.31763 8.47427ZM6.31763 8.47427L5.215 9.058L3.40061 7.72095L2.60268 7.54603L3.83908 12.0492L4.73896 12.2683L3.74586 8.71048L4.83363 9.47131L5.69179 12.5063L6.61387 12.7333L5.77685 9.70913L6.119 9.52876L6.60402 9.39557L7.5922 12.9738L8.51453 13.2016L7.28814 8.73495L6.31763 8.47427ZM6.31763 8.47427L5.215 9.058L3.40061 7.72095L2.60268 7.54603L3.83908 12.0492L4.73896 12.2683L3.74586 8.71048L4.83363 9.47131L5.69179 12.5063L6.61387 12.7333L5.77685 9.70913L6.119 9.52876L6.60402 9.39557L7.5922 12.9738L8.51453 13.2016L7.28814 8.73495L6.31763 8.47427ZM6.31763 8.47427L5.215 9.058L3.40061 7.72095L2.60268 7.54603L3.83908 12.0492L4.73896 12.2683L3.74586 8.71048L4.83363 9.47131L5.69179 12.5063L6.61387 12.7333L5.77685 9.70913L6.119 9.52876L6.60402 9.39557L7.5922 12.9738L8.51453 13.2016L7.28814 8.73495L6.31763 8.47427ZM12.2071 2.78584L7.2513 1.62126C6.9235 1.54428 6.57946 1.54884 6.25187 1.6345C5.92427 1.72017 5.624 1.88409 5.37956 2.11071L1.68258 5.53793C1.42738 5.7749 1.24215 6.07177 1.14598 6.39792C1.04981 6.72408 1.04618 7.06773 1.13547 7.39342L2.36629 11.8762C2.45595 12.2016 2.63518 12.4973 2.88552 12.7327C3.13586 12.968 3.44825 13.1346 3.79052 13.2153L8.74811 14.3794C9.07591 14.4564 9.41994 14.4518 9.74754 14.3662C10.0751 14.2805 10.3754 14.1166 10.6198 13.89L14.3168 10.4627C14.5722 10.226 14.7576 9.92928 14.854 9.60322C14.9504 9.27716 14.9542 8.93356 14.8651 8.60786L13.6342 4.12508C13.5447 3.79935 13.3654 3.50345 13.1148 3.26793C12.8642 3.03242 12.5515 2.86583 12.2089 2.78537L12.2071 2.78584ZM9.41625 13.1631C9.437 13.2384 9.4366 13.318 9.41508 13.3937C9.39356 13.4694 9.35168 13.5386 9.29362 13.5944C9.23556 13.6503 9.16335 13.6908 9.08422 13.7119C9.00508 13.733 8.92179 13.734 8.84266 13.7148L3.83711 12.4978C3.66894 12.4568 3.5157 12.374 3.39296 12.2576C3.27023 12.1412 3.18239 11.9954 3.13837 11.8352L1.81489 7.01489L7.2334 8.27116C7.50133 8.32559 7.74749 8.44951 7.94496 8.62935C8.14243 8.80919 8.28362 9.03804 8.35308 9.29087L9.41625 13.1631ZM6.82879 7.65345L2.02547 6.53626C2.02547 6.53626 2.12652 6.05537 2.46204 5.73949C2.77411 5.4461 5.83917 2.54952 5.83917 2.54952C6.01381 2.38437 6.22996 2.26502 6.46629 2.20322C6.70262 2.14142 6.95097 2.13931 7.18682 2.19712C7.18682 2.19712 11.581 3.27859 11.8409 3.33788C11.9703 3.3701 12.0914 3.4266 12.1971 3.50412C12.3028 3.58163 12.3911 3.67861 12.4569 3.78943L8.97269 7.08011C8.69459 7.3427 8.35129 7.53338 7.9758 7.63379C7.60032 7.7342 7.20531 7.74097 6.82879 7.65345V7.65345ZM13.0638 5.52314L9.95015 8.55603L10.8012 11.6556L13.1468 9.36074L12.8602 8.3168L11.3606 9.78238L11.084 8.7749L13.3502 6.56623L14.0487 9.11038C14.0916 9.26819 14.0901 9.43451 14.0445 9.5927C13.999 9.75089 13.9108 9.89541 13.7889 10.0118L10.2955 13.3558L9.04047 8.78482C8.99782 8.62721 8.99929 8.46116 9.04475 8.30319C9.09021 8.14523 9.17807 8.00087 9.29958 7.88448L12.793 4.53686L13.0638 5.52314ZM5.215 9.058L3.40061 7.72095L2.60268 7.54603L3.83908 12.0492L4.73896 12.2683L3.74586 8.71048L4.83363 9.47131L5.69179 12.5063L6.61387 12.7333L5.77685 9.70913L6.119 9.52876L6.60402 9.39557L7.5922 12.9738L8.51453 13.2016L7.28814 8.73495L6.31852 8.47404L5.215 9.058ZM6.31763 8.47427L5.215 9.058L3.40061 7.72095L2.60268 7.54603L3.83908 12.0492L4.73896 12.2683L3.74586 8.71048L4.83363 9.47131L5.69179 12.5063L6.61387 12.7333L5.77685 9.70913L6.119 9.52876L6.60402 9.39557L7.5922 12.9738L8.51453 13.2016L7.28814 8.73495L6.31763 8.47427ZM6.31763 8.47427L5.215 9.058L3.40061 7.72095L2.60268 7.54603L3.83908 12.0492L4.73896 12.2683L3.74586 8.71048L4.83363 9.47131L5.69179 12.5063L6.61387 12.7333L5.77685 9.70913L6.119 9.52876L6.60402 9.39557L7.5922 12.9738L8.51453 13.2016L7.28814 8.73495L6.31763 8.47427Z" fill="url(#paint1_linear_3046_15571)"/>
<defs>
<linearGradient id="paint0_linear_3046_15571" x1="11.9558" y1="6.6271" x2="5.48117" y2="-0.430303" gradientUnits="userSpaceOnUse">
<stop stop-color="#663500"/>
<stop offset="0.08" stop-color="#764710"/>
<stop offset="0.24" stop-color="#9E7538"/>
<stop offset="0.41" stop-color="#D0AD6A"/>
<stop offset="0.5" stop-color="#D8B97C"/>
<stop offset="0.72" stop-color="#EAD3A2"/>
</linearGradient>
<linearGradient id="paint1_linear_3046_15571" x1="20.0669" y1="16.4651" x2="-2.77748" y2="2.79011" gradientUnits="userSpaceOnUse">
<stop stop-color="#663500"/>
<stop offset="0.08" stop-color="#764710"/>
<stop offset="0.24" stop-color="#9E7538"/>
<stop offset="0.41" stop-color="#D0AD6A"/>
<stop offset="0.5" stop-color="#D8B97C"/>
<stop offset="0.72" stop-color="#EAD3A2"/>
</linearGradient>
</defs>
</svg>
